<svg width="159" height="158" viewBox="0 0 159 158" fill="none" xmlns="http://www.w3.org/2000/svg">
<g clip-path="url(#clip0_298_1266)">
<path opacity="0.19" d="M131.332 104.358V115.654C126.644 115.654 115.756 114.431 105.159 120.167V74.3272L111.374 77.3842V89.6847L131.332 104.358Z" fill="#2676FF"/>
<path opacity="0.19" d="M60.0906 58.897L65.9424 65.4476V87.9524L63.0165 90.529V113.718H55.1267V65.0545L60.0906 58.897Z" fill="#2676FF"/>
<path d="M61.3426 54.5736V83.2506L57.1065 86.424V138.872C51.3129 136.762 45.8832 133.85 40.9775 130.284V72.2893L61.3426 54.5736Z" fill="url(#paint0_linear_298_1266)"/>
<path d="M74.4291 96.2062V140.212H73.876C70.4114 140.212 67.0051 139.95 63.6716 139.44V89.5974L74.4291 96.2062Z" fill="url(#paint1_linear_298_1266)"/>
<path d="M82.1006 132.307L91.8828 126.091L91.4897 61.8375L109.336 71.8963V57.0774L82.1006 40.4244V132.307Z" fill="url(#paint2_linear_298_1266)"/>
<path d="M98.7536 123.049V72.5513L107.342 76.7874V89.0879L127.3 103.761V116.717C127.3 116.717 112.772 115.479 98.739 123.064L98.7536 123.049Z" fill="url(#paint3_linear_298_1266)"/>
<path d="M127.3 103.747V116.702C127.3 116.702 112.772 115.465 98.7535 123.049V72.5513L101.126 73.7159L107.342 76.7728V89.0733L127.3 103.747Z" fill="url(#paint4_linear_298_1266)"/>
<path d="M158.684 79.3348C158.684 80.0772 158.684 80.8342 158.655 81.5766C158.641 81.9696 158.626 82.3627 158.611 82.7557C158.582 83.338 158.553 83.9057 158.509 84.488C158.509 84.6918 158.495 84.881 158.48 85.0702C158.422 85.8854 158.349 86.7006 158.277 87.5012C158.277 87.5303 158.262 87.5595 158.262 87.5886C158.16 88.4911 158.058 89.3936 157.927 90.2961C156.442 101.039 152.818 111.083 147.475 120.007L137.577 115.902C143.152 106.149 146.34 94.8524 146.34 82.8139C146.34 46.0288 116.615 16.2018 79.9462 16.2018C43.2775 16.2018 13.5524 46.0288 13.5524 82.8139C13.5524 113.543 34.2959 139.411 62.4925 147.097C68.4608 148.713 74.8367 147.01 79.1747 142.613C91.1986 130.444 107.895 122.889 126.324 122.889C128.493 122.889 130.633 122.991 132.744 123.209C136.616 123.573 140.386 124.272 144.025 125.291C144.084 125.305 144.142 125.32 144.2 125.334C141.653 128.974 138.8 132.38 135.684 135.524C135.582 135.51 135.495 135.495 135.393 135.481C132.424 135.058 129.396 134.855 126.324 134.855C124.577 134.855 122.86 134.927 121.142 135.044H121.128C107.59 136.107 95.1727 141.231 85.1284 149.237H85.1139C83.3525 150.649 81.6493 152.134 80.0335 153.706C76.831 156.85 72.4057 158.495 67.9514 157.854C67.9368 157.854 67.9077 157.854 67.8786 157.84C29.4922 152.294 0 119.235 0 79.3203C0 34.4561 37.251 -1.71768 82.5373 0.0582559C121.142 1.55761 152.978 31.1953 158 68.8248C158.087 69.4944 158.175 70.164 158.233 70.8336C158.277 71.2267 158.32 71.6052 158.349 71.9836C158.393 72.3767 158.422 72.7843 158.451 73.1918C158.509 73.9779 158.553 74.764 158.597 75.5646C158.611 75.8994 158.626 76.2488 158.641 76.5836C158.641 76.7437 158.655 76.9184 158.655 77.0785C158.67 77.8355 158.684 78.5779 158.684 79.3348Z" fill="url(#paint5_linear_298_1266)"/>
</g>
<defs>
<linearGradient id="paint0_linear_298_1266" x1="107.197" y1="212.064" x2="0.378491" y2="-16.0125" gradientUnits="userSpaceOnUse">
<stop stop-color="#49C0FF"/>
<stop offset="1" stop-color="#2676FF"/>
</linearGradient>
<linearGradient id="paint1_linear_298_1266" x1="113.645" y1="213.039" x2="3.49361" y2="-22.1701" gradientUnits="userSpaceOnUse">
<stop stop-color="#49C0FF"/>
<stop offset="1" stop-color="#2676FF"/>
</linearGradient>
<linearGradient id="paint2_linear_298_1266" x1="142.002" y1="193.548" x2="36.5231" y2="-31.7193" gradientUnits="userSpaceOnUse">
<stop stop-color="#49C0FF"/>
<stop offset="1" stop-color="#2676FF"/>
</linearGradient>
<linearGradient id="paint3_linear_298_1266" x1="149.033" y1="190.258" x2="43.5394" y2="-34.9946" gradientUnits="userSpaceOnUse">
<stop stop-color="#49C0FF"/>
<stop offset="1" stop-color="#2676FF"/>
</linearGradient>
<linearGradient id="paint4_linear_298_1266" x1="149.018" y1="190.258" x2="43.5394" y2="-34.9801" gradientUnits="userSpaceOnUse">
<stop stop-color="#49C0FF"/>
<stop offset="1" stop-color="#2676FF"/>
</linearGradient>
<linearGradient id="paint5_linear_298_1266" x1="0" y1="79" x2="158.684" y2="79" gradientUnits="userSpaceOnUse">
<stop stop-color="#49C0FF"/>
<stop offset="1" stop-color="#2676FF"/>
</linearGradient>
<clipPath id="clip0_298_1266">
<rect width="158.684" height="158" fill="white"/>
</clipPath>
</defs>
</svg>
