<?xml version="1.0" encoding="UTF-8"?>
<svg id="Layer_1" data-name="Layer 1" xmlns="http://www.w3.org/2000/svg" viewBox="0 0 512 512">
  <defs>
    <style>
      .cls-1 {
        fill: #cfcfce;
      }

      .cls-2 {
        fill: #02ab9e;
      }

      .cls-3 {
        fill: #ef433e;
      }

      .cls-4 {
        fill: #f6ab34;
      }
    </style>
  </defs>
  <g>
    <path class="cls-2" d="M101.57,236.44c-5.19-4.97-12.93-7.74-19.67-7.74-16.57,0-26.63,12.6-26.63,28.51,0,12.71,7.4,25.86,26.63,25.86,6.08,0,11.38-1.33,17.46-6.19v-13.7h-19.78v-13.04h33.15v32.6c-7.62,8.73-17.24,13.92-30.83,13.92-29.06,0-40.89-19.12-40.89-39.45,0-21.77,13.59-41.88,40.89-41.88,10.39,0,20.77,3.98,28.73,11.82l-9.06,9.28Z"/>
    <path class="cls-2" d="M136.16,240.42l.99,6.3c4.2-6.74,9.83-7.73,15.36-7.73s11.05,2.21,14.03,5.19l-6.08,11.71c-2.76-2.32-5.3-3.54-9.72-3.54-7.07,0-13.59,3.76-13.59,13.81v28.73h-13.48v-54.48h12.49Z"/>
    <path class="cls-2" d="M214.84,240.42h12.93v54.48h-12.71l-.66-7.96c-3.09,6.41-11.6,9.5-17.68,9.61-16.13,.11-28.07-9.83-28.07-28.95s12.49-28.62,28.4-28.51c7.29,0,14.26,3.43,17.35,8.84l.44-7.51Zm-32.71,27.18c0,10.39,7.18,16.58,16.13,16.58,21.22,0,21.22-33.04,0-33.04-8.95,0-16.13,6.08-16.13,16.46Z"/>
    <path class="cls-2" d="M255.83,225.06v15.47h15.03v11.6h-15.14v23.54c0,5.19,2.87,7.73,7.07,7.73,2.1,0,4.53-.66,6.52-1.66l3.76,11.49c-3.87,1.55-7.07,2.21-11.16,2.32-11.82,.44-19.56-6.3-19.56-19.89v-23.54h-10.17v-11.6h10.17v-14.03l13.48-1.44Z"/>
    <path class="cls-2" d="M294.73,240.42v28.51c0,8.29,4.53,14.59,13.15,14.59s13.92-6.96,13.92-15.25v-27.85h13.37v54.59h-12.04l-.88-7.4c-5.64,5.53-10.83,8.18-18.45,8.18-13.04,0-22.54-9.83-22.54-26.74v-28.62h13.48Z"/>
    <path class="cls-1" d="M347.11,240.2v54.7h13.48v-54.7h-13.48Z"/>
    <path class="cls-2" d="M391.75,225.06v15.47h15.03v11.6h-15.14v23.54c0,5.19,2.87,7.73,7.07,7.73,2.1,0,4.53-.66,6.52-1.66l3.76,11.49c-3.87,1.55-7.07,2.21-11.16,2.32-11.82,.44-19.56-6.3-19.56-19.89v-23.54h-10.17v-11.6h10.17v-14.03l13.48-1.44Z"/>
    <path class="cls-2" d="M470.98,267.71c0,15.69-10.72,28.4-28.4,28.4s-28.29-12.71-28.29-28.4,10.83-28.4,28.18-28.4,28.51,12.82,28.51,28.4Zm-43.21,0c0,8.29,4.97,16.02,14.81,16.02s14.81-7.74,14.81-16.02-5.75-16.13-14.81-16.13c-9.72,0-14.81,7.96-14.81,16.13Z"/>
  </g>
  <rect class="cls-4" x="347.11" y="275.21" width="13.48" height="19.85"/>
  <path class="cls-3" d="M361.81,225.06c0,10.5-15.91,10.5-15.91,0s15.91-10.5,15.91,0Z"/>
</svg>