<svg width="158" height="30" viewBox="0 0 158 30" fill="none" xmlns="http://www.w3.org/2000/svg">
<g id="Group 598">
<g id="Group">
<path id="Vector" d="M22.2969 7.7172C20.3912 5.90031 17.5492 4.88768 15.0744 4.88768C8.99006 4.88768 5.29615 9.49387 5.29615 15.3101C5.29615 19.9565 8.01334 24.7638 15.0744 24.7638C17.3069 24.7638 19.253 24.2775 21.4855 22.5009V17.4925H14.2225V12.7255H26.3947V24.6431C23.5968 27.8345 20.0644 29.7319 15.0744 29.7319C4.40389 29.7319 0.0600586 22.7421 0.0600586 15.3101C0.0600586 7.35162 5.05014 0 15.0744 0C18.8894 0 22.7008 1.45497 25.6236 4.32104L22.2969 7.71354V7.7172Z" fill="#02AB9E"/>
<path id="Vector_2" d="M34.998 9.17218L35.3616 11.4753C36.9037 9.01133 38.971 8.64941 41.0016 8.64941C43.0321 8.64941 45.059 9.45732 46.1532 10.5467L43.9207 14.8276C42.9073 13.9794 41.9746 13.5334 40.3516 13.5334C37.7556 13.5334 35.3616 14.908 35.3616 18.582V29.0848H30.4119V9.16852H34.998V9.17218Z" fill="#02AB9E"/>
<path id="Vector_3" d="M63.8884 9.1721H68.6361V29.0884H63.9692L63.7268 26.1784C62.5922 28.5218 59.4674 29.6514 57.2349 29.6916C51.3122 29.7318 46.928 26.098 46.928 19.1083C46.928 12.1186 51.5142 8.64568 57.3561 8.68589C60.0329 8.68589 62.5922 9.9398 63.7268 11.9175L63.8884 9.1721ZM51.8777 19.1083C51.8777 22.9066 54.5141 25.1695 57.8004 25.1695C65.5921 25.1695 65.5921 13.091 57.8004 13.091C54.5141 13.091 51.8777 15.3137 51.8777 19.1083Z" fill="#02AB9E"/>
<path id="Vector_4" d="M78.9394 3.55712V9.2125H84.4582V13.4531H78.899V22.0587C78.899 23.956 79.9528 24.8845 81.495 24.8845C82.2661 24.8845 83.1583 24.6432 83.889 24.2777L85.2697 28.4781C83.8487 29.0447 82.6737 29.286 81.1719 29.3262C76.8317 29.487 73.9897 27.0231 73.9897 22.055V13.4495H70.2554V9.20884H73.9897V4.07989L78.9394 3.55347V3.55712Z" fill="#02AB9E"/>
<path id="Vector_5" d="M93.2229 9.17212V19.5945C93.2229 22.6251 94.8862 24.9282 98.0514 24.9282C101.217 24.9282 103.163 22.3838 103.163 19.3533V9.17212H108.072V29.1286H103.651L103.328 26.4234C101.257 28.445 99.3512 29.4138 96.5533 29.4138C91.7651 29.4138 88.2769 25.8202 88.2769 19.6384V9.17577H93.2265L93.2229 9.17212Z" fill="#02AB9E"/>
<path id="Vector_6" d="M112.456 9.0918V29.0885H117.406V9.0918H112.456Z" fill="#CFCFCE"/>
<path id="Vector_7" d="M128.847 3.55712V9.2125H134.366V13.4531H128.807V22.0587C128.807 23.956 129.861 24.8845 131.403 24.8845C132.174 24.8845 133.066 24.6432 133.797 24.2777L135.178 28.4781C133.757 29.0447 132.582 29.286 131.08 29.3262C126.74 29.487 123.898 27.0231 123.898 22.055V13.4495H120.163V9.20884H123.898V4.07989L128.847 3.55347V3.55712Z" fill="#02AB9E"/>
<path id="Vector_8" d="M157.94 19.1486C157.94 24.8844 154.003 29.5308 147.512 29.5308C141.02 29.5308 137.124 24.8844 137.124 19.1486C137.124 13.4128 141.1 8.76636 147.471 8.76636C153.842 8.76636 157.94 13.453 157.94 19.1486ZM142.073 19.1486C142.073 22.1791 143.898 25.005 147.512 25.005C151.125 25.005 152.95 22.1755 152.95 19.1486C152.95 16.1216 150.838 13.2519 147.512 13.2519C143.942 13.2519 142.073 16.1618 142.073 19.1486Z" fill="#02AB9E"/>
</g>
<path id="Vector_9" d="M117.406 21.8904H112.456V29.147H117.406V21.8904Z" fill="#F6AB34"/>
<path id="Vector_10" d="M117.854 3.55709C117.854 7.39558 112.012 7.39558 112.012 3.55709C112.012 -0.2814 117.854 -0.2814 117.854 3.55709Z" fill="#EF433E"/>
</g>
</svg>
